<?xml version="1.0" encoding="utf-8"?>
<!-- Generator: Adobe Illustrator 17.0.0, SVG Export Plug-In . SVG Version: 6.00 Build 0)  -->
<!DOCTYPE svg PUBLIC "-//W3C//DTD SVG 1.1//EN" "http://www.w3.org/Graphics/SVG/1.1/DTD/svg11.dtd">
<svg version="1.1" xmlns="http://www.w3.org/2000/svg" xmlns:xlink="http://www.w3.org/1999/xlink" x="0px" y="0px" width="325px"
	 height="110px" viewBox="0 0 325 110" enable-background="new 0 0 325 110" xml:space="preserve">
<g id="Capa_2" display="none">
	<rect x="-48.5" y="-64" display="inline" fill="#0A0500" width="422" height="238"/>
</g>
<g id="Capa_1">
	<g>
		<g>
			<path fill="#FBB03B" stroke="#FFFFFF" stroke-width="11" stroke-miterlimit="10" d="M5.953,90.926V22.238
				c0-1.367,0.639-2.555,1.92-3.564c1.279-1.007,2.959-1.512,5.04-1.512h24.84c8.56,0,15.42,1.998,20.58,5.994
				c5.16,3.996,7.74,10.279,7.74,18.846v0.54c0,8.569-2.7,14.887-8.1,18.954c-5.4,4.068-12.54,6.101-21.42,6.101h-11.88v23.329
				c0,1.657-0.921,2.935-2.76,3.834c-1.841,0.901-4.041,1.35-6.6,1.35c-2.561,0-4.76-0.449-6.6-1.35
				C6.872,93.861,5.953,92.583,5.953,90.926z M24.674,54.638h11.88c7.2,0,10.8-3.6,10.8-10.8V42.65c0-7.199-3.6-10.8-10.8-10.8
				h-11.88V54.638z"/>
			<path fill="#FBB03B" stroke="#FFFFFF" stroke-width="11" stroke-miterlimit="10" d="M75.432,32.559
				c-1.92-1.472-2.88-3.201-2.88-5.188c0-1.986,0.96-3.699,2.88-5.137c1.92-1.437,4.239-2.156,6.96-2.156
				c2.64,0,4.92,0.719,6.84,2.156c1.92,1.438,2.88,3.151,2.88,5.137c0,1.986-0.96,3.716-2.88,5.188
				c-1.92,1.471-4.2,2.207-6.84,2.207C79.671,34.766,77.352,34.03,75.432,32.559z M73.152,90.926V49.778
				c0-1.512,0.859-2.736,2.58-3.672c1.719-0.935,3.939-1.404,6.66-1.404c2.64,0,4.86,0.469,6.66,1.404c1.8,0.936,2.7,2.16,2.7,3.672
				v41.148c0,1.296-0.92,2.484-2.76,3.564c-1.841,1.08-4.041,1.62-6.6,1.62c-2.64,0-4.841-0.521-6.6-1.566
				C74.031,93.501,73.152,92.295,73.152,90.926z"/>
			<path fill="#FBB03B" stroke="#FFFFFF" stroke-width="11" stroke-miterlimit="10" d="M102.43,90.926V49.778
				c0-1.512,0.859-2.736,2.58-3.672c1.719-0.935,3.939-1.404,6.66-1.404c2.239,0,4.159,0.472,5.76,1.416
				c1.6,0.944,2.4,2.177,2.4,3.701v2.504c1.279-2.32,3.339-4.278,6.18-5.874c2.839-1.597,6.139-2.395,9.9-2.395
				c5.52,0,10.299,2.232,14.34,6.696c4.039,4.465,6.061,9.792,6.061,15.983v24.193c0,1.657-0.922,2.935-2.762,3.834
				c-1.84,0.901-4.039,1.35-6.6,1.35c-2.399,0-4.541-0.466-6.419-1.399c-1.881-0.933-2.82-2.19-2.82-3.77V66.818
				c0-2.08-0.861-3.946-2.58-5.599c-1.721-1.65-3.741-2.477-6.06-2.477c-2.081,0-3.941,0.736-5.58,2.207
				c-1.641,1.471-2.46,3.429-2.46,5.868v24.123c0,1.293-0.941,2.478-2.82,3.554c-1.881,1.077-4.062,1.615-6.54,1.615
				c-2.64,0-4.841-0.521-6.6-1.566C103.309,93.501,102.43,92.295,102.43,90.926z"/>
			<path fill="#FBB03B" stroke="#FFFFFF" stroke-width="11" stroke-miterlimit="10" d="M166.629,90.987V39.751
				c0-7.847,3.28-14.006,9.84-18.476c6.559-4.469,14.599-6.705,24.12-6.705c4.959,0,9.979,0.608,15.06,1.822
				c5.079,1.215,8.82,2.923,11.22,5.124v69.383c0,1.303-0.941,2.498-2.819,3.582c-1.881,1.087-4.101,1.629-6.66,1.629
				c-2.562,0-4.722-0.521-6.48-1.566c-1.761-1.042-2.64-2.249-2.64-3.618V30.77c-2.001-1.007-4.842-1.512-8.521-1.512
				c-3.92,0-7.319,0.882-10.199,2.646c-2.881,1.765-4.32,4.303-4.32,7.614v5.184h11.04c1.439,0,2.56,0.648,3.359,1.944
				c0.799,1.296,1.2,2.808,1.2,4.536c0,1.807-0.401,3.339-1.2,4.595c-0.8,1.257-1.92,1.885-3.359,1.885h-11.04v33.51
				c0,1.401-0.941,2.575-2.82,3.52c-1.881,0.945-4.101,1.418-6.66,1.418c-2.64,0-4.82-0.473-6.54-1.418
				C167.489,93.747,166.629,92.513,166.629,90.987z"/>
			<path fill="#FBB03B" stroke="#FFFFFF" stroke-width="11" stroke-miterlimit="10" d="M236.589,74.294v-7.56
				c0-6.119,2.679-11.429,8.04-15.929c5.358-4.499,11.76-6.75,19.2-6.75c7.359,0,13.758,2.232,19.199,6.696
				c5.439,4.465,8.16,9.792,8.16,15.983v7.56c0,6.048-2.741,11.377-8.22,15.984c-5.48,4.609-11.861,6.913-19.14,6.913
				c-7.281,0-13.641-2.304-19.08-6.913C239.307,85.671,236.589,80.341,236.589,74.294z M255.188,74.26
				c0,2.141,0.84,4.05,2.521,5.727c1.68,1.678,3.72,2.515,6.12,2.515c2.399,0,4.458-0.837,6.18-2.515
				c1.719-1.677,2.58-3.586,2.58-5.727v-7.491c0-2.069-0.882-3.925-2.641-5.565c-1.76-1.64-3.8-2.462-6.119-2.462
				c-2.321,0-4.341,0.822-6.061,2.462c-1.721,1.64-2.58,3.496-2.58,5.565V74.26z"/>
			<path fill="#FBB03B" stroke="#FFFFFF" stroke-width="11" stroke-miterlimit="10" d="M302.106,32.559
				c-1.92-1.472-2.88-3.201-2.88-5.188c0-1.986,0.96-3.699,2.88-5.137c1.92-1.437,4.239-2.156,6.96-2.156
				c2.641,0,4.92,0.719,6.841,2.156c1.92,1.438,2.88,3.151,2.88,5.137c0,1.986-0.96,3.716-2.88,5.188
				c-1.921,1.471-4.2,2.207-6.841,2.207C306.346,34.766,304.026,34.03,302.106,32.559z M299.827,90.926V49.778
				c0-1.512,0.858-2.736,2.58-3.672c1.719-0.935,3.938-1.404,6.659-1.404c2.641,0,4.86,0.469,6.66,1.404
				c1.8,0.936,2.7,2.16,2.7,3.672v41.148c0,1.296-0.921,2.484-2.76,3.564c-1.842,1.08-4.041,1.62-6.601,1.62
				c-2.64,0-4.841-0.521-6.6-1.566C300.706,93.501,299.827,92.295,299.827,90.926z"/>
		</g>
		<path fill="#FBB03B" stroke="#FFFFFF" stroke-width="2" stroke-miterlimit="10" d="M6.213,91.466V22.778
			c0-1.367,0.639-2.555,1.92-3.564c1.279-1.007,2.959-1.512,5.04-1.512h24.84c8.56,0,15.42,1.998,20.58,5.994
			c5.16,3.996,7.74,10.279,7.74,18.846v0.54c0,8.569-2.7,14.887-8.1,18.954c-5.4,4.068-12.54,6.101-21.42,6.101h-11.88v23.329
			c0,1.657-0.921,2.935-2.76,3.834c-1.841,0.901-4.041,1.35-6.6,1.35c-2.561,0-4.76-0.449-6.6-1.35
			C7.132,94.401,6.213,93.123,6.213,91.466z M24.933,55.178h11.88c7.2,0,10.8-3.6,10.8-10.8V43.19c0-7.199-3.6-10.8-10.8-10.8
			h-11.88V55.178z"/>
		<path fill="#FBB03B" stroke="#FFFFFF" stroke-width="2" stroke-miterlimit="10" d="M75.692,33.099
			c-1.92-1.472-2.88-3.201-2.88-5.188c0-1.986,0.96-3.699,2.88-5.137c1.92-1.437,4.239-2.156,6.96-2.156
			c2.64,0,4.92,0.719,6.84,2.156c1.92,1.438,2.88,3.151,2.88,5.137c0,1.986-0.96,3.716-2.88,5.188c-1.92,1.471-4.2,2.207-6.84,2.207
			C79.931,35.306,77.611,34.57,75.692,33.099z M73.411,91.466V50.318c0-1.512,0.859-2.736,2.58-3.672
			c1.719-0.935,3.939-1.404,6.66-1.404c2.64,0,4.86,0.469,6.66,1.404c1.8,0.936,2.7,2.16,2.7,3.672v41.148
			c0,1.296-0.92,2.484-2.76,3.564c-1.841,1.08-4.041,1.62-6.6,1.62c-2.64,0-4.841-0.521-6.6-1.566
			C74.291,94.041,73.411,92.835,73.411,91.466z"/>
		<path fill="#FBB03B" stroke="#FFFFFF" stroke-width="2" stroke-miterlimit="10" d="M102.69,91.466V50.318
			c0-1.512,0.859-2.736,2.58-3.672c1.719-0.935,3.939-1.404,6.66-1.404c2.239,0,4.159,0.472,5.76,1.416
			c1.6,0.944,2.4,2.177,2.4,3.701v2.504c1.279-2.32,3.339-4.278,6.18-5.874c2.839-1.597,6.139-2.395,9.9-2.395
			c5.52,0,10.299,2.232,14.34,6.696c4.039,4.465,6.061,9.792,6.061,15.983v24.193c0,1.657-0.922,2.935-2.762,3.834
			c-1.84,0.901-4.039,1.35-6.6,1.35c-2.399,0-4.541-0.466-6.419-1.399c-1.881-0.933-2.82-2.19-2.82-3.77V67.358
			c0-2.08-0.861-3.946-2.58-5.599c-1.721-1.65-3.741-2.477-6.06-2.477c-2.081,0-3.941,0.736-5.58,2.207
			c-1.641,1.471-2.46,3.429-2.46,5.868v24.123c0,1.293-0.941,2.478-2.82,3.554c-1.881,1.077-4.062,1.615-6.54,1.615
			c-2.64,0-4.841-0.521-6.6-1.566C103.569,94.041,102.69,92.835,102.69,91.466z"/>
		<path fill="#FBB03B" stroke="#FFFFFF" stroke-width="2" stroke-miterlimit="10" d="M166.889,91.527V40.291
			c0-7.847,3.28-14.006,9.84-18.476c6.559-4.469,14.599-6.705,24.12-6.705c4.959,0,9.979,0.608,15.06,1.822
			c5.079,1.215,8.82,2.923,11.22,5.124v69.383c0,1.303-0.941,2.498-2.819,3.582c-1.881,1.087-4.101,1.629-6.66,1.629
			c-2.562,0-4.722-0.521-6.48-1.566c-1.761-1.042-2.64-2.249-2.64-3.618V31.31c-2.001-1.007-4.842-1.512-8.521-1.512
			c-3.92,0-7.319,0.882-10.199,2.646c-2.881,1.765-4.32,4.303-4.32,7.614v5.184h11.04c1.439,0,2.56,0.648,3.359,1.944
			c0.799,1.296,1.2,2.808,1.2,4.536c0,1.807-0.401,3.339-1.2,4.595c-0.8,1.257-1.92,1.885-3.359,1.885h-11.04v33.51
			c0,1.401-0.941,2.575-2.82,3.52c-1.881,0.945-4.101,1.418-6.66,1.418c-2.64,0-4.82-0.473-6.54-1.418
			C167.748,94.288,166.889,93.053,166.889,91.527z"/>
		<path fill="#FBB03B" stroke="#FFFFFF" stroke-width="2" stroke-miterlimit="10" d="M236.848,74.834v-7.56
			c0-6.119,2.679-11.429,8.04-15.929c5.358-4.499,11.76-6.75,19.2-6.75c7.359,0,13.758,2.232,19.199,6.696
			c5.439,4.465,8.16,9.792,8.16,15.983v7.56c0,6.048-2.741,11.377-8.22,15.984c-5.48,4.609-11.861,6.913-19.14,6.913
			c-7.281,0-13.641-2.304-19.08-6.913C239.567,86.211,236.848,80.882,236.848,74.834z M255.448,74.8c0,2.141,0.84,4.05,2.521,5.727
			c1.68,1.678,3.72,2.515,6.12,2.515c2.399,0,4.458-0.837,6.18-2.515c1.719-1.677,2.58-3.586,2.58-5.727V67.31
			c0-2.069-0.882-3.925-2.641-5.565c-1.76-1.64-3.8-2.462-6.119-2.462c-2.321,0-4.341,0.822-6.061,2.462
			c-1.721,1.64-2.58,3.496-2.58,5.565V74.8z"/>
		<path fill="#FBB03B" stroke="#FFFFFF" stroke-width="2" stroke-miterlimit="10" d="M302.366,33.099
			c-1.92-1.472-2.88-3.201-2.88-5.188c0-1.986,0.96-3.699,2.88-5.137c1.92-1.437,4.239-2.156,6.96-2.156
			c2.641,0,4.92,0.719,6.841,2.156c1.92,1.438,2.88,3.151,2.88,5.137c0,1.986-0.96,3.716-2.88,5.188
			c-1.921,1.471-4.2,2.207-6.841,2.207C306.605,35.306,304.286,34.57,302.366,33.099z M300.087,91.466V50.318
			c0-1.512,0.858-2.736,2.58-3.672c1.719-0.935,3.938-1.404,6.659-1.404c2.641,0,4.86,0.469,6.66,1.404
			c1.8,0.936,2.7,2.16,2.7,3.672v41.148c0,1.296-0.921,2.484-2.76,3.564c-1.842,1.08-4.041,1.62-6.601,1.62
			c-2.64,0-4.841-0.521-6.6-1.566C300.965,94.041,300.087,92.835,300.087,91.466z"/>
	</g>
</g>
</svg>
